<?xml version="1.0" encoding="iso-8859-1"?>
<!-- Generator: Adobe Illustrator 19.0.0, SVG Export Plug-In . SVG Version: 6.00 Build 0)  -->
<svg version="1.1" id="Capa_1" xmlns="http://www.w3.org/2000/svg" xmlns:xlink="http://www.w3.org/1999/xlink" x="0px" y="0px"
	 viewBox="0 0 512 512" style="enable-background:new 0 0 512 512;" xml:space="preserve">
<g>
	<path style="fill:#BDC3C7;" d="M512,406.069v17.655H0v-17.655L50.961,15.372C52.107,6.578,59.599,0,68.467,0h375.065
		c8.868,0,16.36,6.578,17.507,15.372L512,406.069z"/>
	<path style="fill:#95A5A5;" d="M512,406.069v88.276c-0.029,9.739-7.916,17.627-17.655,17.655H17.655
		C7.916,511.971,0.029,504.084,0,494.345v-88.276H512z"/>
	<g>
		<path style="fill:#7F8C8D;" d="M308.966,441.379V512H291.31v-70.621c0-4.875,3.952-8.828,8.828-8.828
			S308.966,436.504,308.966,441.379z"/>
		<path style="fill:#7F8C8D;" d="M344.276,441.379V512h-17.655v-70.621c0-4.875,3.952-8.828,8.828-8.828
			S344.276,436.504,344.276,441.379z"/>
		<path style="fill:#7F8C8D;" d="M379.586,441.379V512h-17.655v-70.621c0-4.875,3.952-8.828,8.828-8.828
			S379.586,436.504,379.586,441.379z"/>
		<path style="fill:#7F8C8D;" d="M414.897,441.379V512h-17.655v-70.621c0-4.875,3.952-8.828,8.828-8.828
			S414.897,436.504,414.897,441.379z"/>
		<path style="fill:#7F8C8D;" d="M450.207,441.379V512h-17.655v-70.621c0-4.875,3.952-8.828,8.828-8.828
			S450.207,436.504,450.207,441.379z"/>
	</g>
	<circle style="fill:#65DDB9;" cx="70.621" cy="459.034" r="17.655"/>
	<g>
		<path style="fill:#547580;" d="M414.985,159.338c11.392,18.443,17.471,39.674,17.567,61.352
			c0,78.036-79.007,141.241-176.552,141.241S79.448,298.726,79.448,220.69c0.06-21.831,6.238-43.207,17.832-61.705l-0.177-0.088
			l-25.777-26.483l9.269-71.503l34.163-25.6h282.483l34.163,25.6l9.269,71.503l0.353,0.353l-25.423,26.13L414.985,159.338z"/>
		<path style="fill:#547580;" d="M441.379,132.414l-0.353,0.353"/>
	</g>
	<ellipse style="fill:#84B5CB;" cx="256" cy="198.621" rx="35.31" ry="30.897"/>
</g>
<g>
</g>
<g>
</g>
<g>
</g>
<g>
</g>
<g>
</g>
<g>
</g>
<g>
</g>
<g>
</g>
<g>
</g>
<g>
</g>
<g>
</g>
<g>
</g>
<g>
</g>
<g>
</g>
<g>
</g>
</svg>
