<svg height="512pt" viewBox="-61 0 511 512" width="512pt" xmlns="http://www.w3.org/2000/svg"><path d="m106.429688 0h176.554687c14.625 0 26.480469 11.855469 26.480469 26.484375v79.445313h-229.515625v-79.445313c0-14.628906 11.855469-26.484375 26.480469-26.484375zm0 0" fill="#2c2f38"/><path d="m315.203125 141.242188h-240.992187l5.738281-35.3125h229.515625zm0 0" fill="#5e5f62"/><path d="m353.601562 379.585938h-317.792968l38.402344-238.34375h240.992187zm0 0" fill="#e64c3c"/><path d="m353.601562 441.378906c0 4.875-3.949218 8.828125-8.824218 8.828125h-300.140625c-4.875 0-8.828125-3.953125-8.828125-8.828125v-61.792968h317.792968zm0 0" fill="#5e5f62"/><path d="m318.292969 432.550781c-4.875 0-8.828125-3.953125-8.828125-8.828125v-17.652344c0-4.875 3.953125-8.828124 8.828125-8.828124s8.828125 3.953124 8.828125 8.828124v17.652344c0 4.875-3.953125 8.828125-8.828125 8.828125zm0 0" fill="#2c2f38"/><path d="m247.671875 423.722656c-.589844-.019531-1.179687-.078125-1.765625-.175781-.550781-.09375-1.089844-.273437-1.589844-.527344-.5625-.195312-1.09375-.460937-1.585937-.796875-.464844-.324218-.90625-.679687-1.324219-1.058594-2.242188-2.238281-3.113281-5.503906-2.296875-8.5625.820313-3.058593 3.210937-5.445312 6.269531-6.265624 3.058594-.820313 6.320313.054687 8.5625 2.292968.796875.84375 1.425782 1.832032 1.851563 2.914063.941406 2.136719.941406 4.570312 0 6.707031-.425781 1.082031-1.054688 2.070312-1.851563 2.914062-1.695312 1.613282-3.933594 2.527344-6.269531 2.558594zm0 0" fill="#c03a2b"/><path d="m274.15625 52.964844c-.074219 9.722656-7.9375 17.582031-17.65625 17.65625h-88.277344v-35.3125h88.277344c9.738281.03125 17.625 7.917968 17.65625 17.65625zm0 0" fill="#3f5c6c"/><path d="m168.222656 35.308594v35.3125h-35.308594c-9.738281-.03125-17.625-7.917969-17.65625-17.65625.074219-9.71875 7.933594-17.582032 17.65625-17.65625zm0 0" fill="#2fa8cc"/><path d="m212.363281 423.722656c-1.15625-.011718-2.292969-.253906-3.355469-.703125-1.082031-.429687-2.070312-1.058593-2.914062-1.855469-3.054688-2.996093-3.5625-7.734374-1.210938-11.308593 2.351563-3.574219 6.902344-4.988281 10.863282-3.367188 3.960937 1.617188 6.222656 5.8125 5.398437 10.007813-.824219 4.199218-4.503906 7.226562-8.78125 7.226562zm0 0" fill="#c03a2b"/><path d="m177.050781 423.722656c-2.335937-.03125-4.574219-.945312-6.265625-2.558594-.800781-.84375-1.429687-1.832031-1.855468-2.914062-.941407-2.136719-.941407-4.570312 0-6.707031.449218-1.070313 1.074218-2.054688 1.855468-2.914063 3.460938-3.460937 9.074219-3.460937 12.535156 0 3.460938 3.460938 3.460938 9.074219 0 12.535156-1.683593 1.625-3.929687 2.542969-6.269531 2.558594zm0 0" fill="#c03a2b"/><path d="m282.984375 432.550781c-4.878906 0-8.828125-3.953125-8.828125-8.828125v-17.652344c0-4.875 3.949219-8.828124 8.828125-8.828124 4.875 0 8.824219 3.953124 8.824219 8.828124v17.652344c0 4.875-3.949219 8.828125-8.824219 8.828125zm0 0" fill="#2c2f38"/><path d="m16.664062 388.414062h19.144532v44.136719h-19.144532c-8.925781 0-16.164062-7.234375-16.164062-16.164062v-11.808594c0-8.929687 7.238281-16.164063 16.164062-16.164063zm0 0" fill="#4482c3"/><path d="m372.75 432.550781h-19.148438v-44.136719h19.148438c8.925781 0 16.164062 7.234376 16.164062 16.164063v11.808594c0 8.929687-7.238281 16.164062-16.164062 16.164062zm0 0" fill="#4482c3"/><path d="m97.601562 512h-19.824218c-3.941406 0-7.402344-2.613281-8.484375-6.398438l-15.828125-55.394531h52.964844v52.964844c0 4.875-3.949219 8.828125-8.828126 8.828125zm0 0" fill="#2c2f38"/><path d="m291.808594 512h19.828125c3.9375 0 7.402343-2.613281 8.484375-6.398438l15.828125-55.394531h-52.964844v52.964844c0 4.875 3.949219 8.828125 8.824219 8.828125zm0 0" fill="#2c2f38"/><path d="m177.050781 344.277344c-.945312 0-1.890625-.152344-2.789062-.453125l-52.964844-17.652344c-4.632813-1.542969-7.136719-6.546875-5.597656-11.175781 1.542969-4.632813 6.546875-7.136719 11.175781-5.597656l52.964844 17.65625c4.140625 1.34375 6.683594 5.507812 5.988281 9.804687-.699219 4.296875-4.421875 7.445313-8.777344 7.417969zm0 0" fill="#a5a5a4"/><path d="m212.363281 344.277344c-4.332031 0-8.027343-3.140625-8.722656-7.417969-.691406-4.273437 1.820313-8.421875 5.933594-9.789063l52.964843-17.65625c4.628907-1.539062 9.632813.964844 11.175782 5.597657 1.539062 4.632812-.964844 9.636719-5.597656 11.175781l-52.964844 17.65625c-.902344.292969-1.84375.4375-2.789063.433594zm0 0" fill="#a5a5a4"/><g fill="#67b9cc"><path d="m159.398438 238.34375c-14.628907 0-26.484376-11.855469-26.484376-26.480469 0-4.875 3.953126-8.828125 8.828126-8.828125s8.828124 3.953125 8.828124 8.828125 3.949219 8.828125 8.828126 8.828125c4.875 0 8.824218-3.953125 8.824218-8.828125s3.953125-8.828125 8.828125-8.828125 8.828125 3.953125 8.828125 8.828125c0 14.625-11.855468 26.480469-26.480468 26.480469zm0 0"/><path d="m230.015625 238.34375c-14.625 0-26.480469-11.855469-26.480469-26.480469 0-4.875 3.953125-8.828125 8.828125-8.828125s8.828125 3.953125 8.828125 8.828125 3.949219 8.828125 8.824219 8.828125c4.878906 0 8.828125-3.953125 8.828125-8.828125s3.953125-8.828125 8.828125-8.828125 8.828125 3.953125 8.828125 8.828125c0 14.625-11.855469 26.480469-26.484375 26.480469zm0 0"/><path d="m194.707031 291.308594c-14.625 0-26.484375-11.855469-26.484375-26.480469 0-4.875 3.953125-8.828125 8.828125-8.828125s8.828125 3.953125 8.828125 8.828125 3.953125 8.828125 8.828125 8.828125 8.828125-3.953125 8.828125-8.828125 3.953125-8.828125 8.828125-8.828125 8.828125 3.953125 8.828125 8.828125c0 14.625-11.859375 26.480469-26.484375 26.480469zm0 0"/><path d="m309.464844 379.585938c-4.386719-.003907-8.105469-3.230469-8.730469-7.574219l-26.480469-185.378907c-.695312-4.828124 2.65625-9.300781 7.484375-9.992187s9.300781 2.660156 9.992188 7.484375l26.484375 185.378906c.363281 2.535156-.394532 5.105469-2.070313 7.039063-1.679687 1.9375-4.117187 3.046875-6.679687 3.042969zm0 0"/><path d="m79.949219 379.585938c-2.5625.003906-5-1.105469-6.679688-3.042969-1.675781-1.933594-2.433593-4.503907-2.070312-7.039063l26.484375-185.378906c.691406-4.824219 5.164062-8.175781 9.992187-7.484375s8.179688 5.164063 7.484375 9.992187l-26.480468 185.378907c-.625 4.34375-4.34375 7.570312-8.730469 7.574219zm0 0"/></g><path d="m230.015625 185.378906c-1.152344-.011718-2.292969-.253906-3.351563-.707031-3.363281-1.269531-5.558593-4.527344-5.472656-8.121094.011719-1.152343.253906-2.292969.703125-3.355469.804688-2.214843 2.550781-3.960937 4.769531-4.765624 3.285157-1.382813 7.082032-.648438 9.621094 1.855468.796875.84375 1.425782 1.832032 1.851563 2.910156.453125 1.0625.695312 2.203126.707031 3.355469.023438 2.347657-.898438 4.609375-2.558594 6.269531-1.660156 1.660157-3.917968 2.582032-6.269531 2.558594zm0 0" fill="#fff"/></svg>