<svg height="512pt" viewBox="-64 0 512 512" width="512pt" xmlns="http://www.w3.org/2000/svg"><path d="m336.835938 0h-224.933594c-3.980469 0-7.792969 1.582031-10.605469 4.394531l-96.402344 96.398438c-2.8125 2.8125-4.394531 6.628906-4.394531 10.605469v353.46875c0 25.988281 21.144531 47.132812 47.132812 47.132812h289.203126c25.914062 0 47.132812-20.953125 47.132812-47.132812v-417.734376c0-25.914062-20.953125-47.132812-47.132812-47.132812zm0 0" fill="#eff6fe"/><path d="m383.964844 47.128906v417.742188c0 26.179687-21.210938 47.128906-47.128906 47.128906h-144.601563v-512h144.601563c26.179687 0 47.128906 21.21875 47.128906 47.128906zm0 0" fill="#d9e4ef"/><path d="m272.566406 431.667969h-160.664062c-25.808594 0-47.132813-20.855469-47.132813-47.136719v-144.597656c0-25.742188 20.792969-47.132813 47.132813-47.132813h160.664062c25.808594 0 47.132813 20.851563 47.132813 47.132813v144.597656c0 25.742188-20.792969 47.136719-47.132813 47.136719zm0 0" fill="#3ab4fb"/><path d="m272.5625 192.800781h-80.328125v238.871094h80.328125c26.339844 0 47.140625-21.402344 47.140625-47.140625v-144.601562c0-26.269532-21.328125-47.128907-47.140625-47.128907zm0 0" fill="#1d9cfd"/><path d="m95.335938 112.96875c9.445312 0 17.132812-7.6875 17.132812-17.132812v-95.335938h-1.070312c-3.976563 0-7.792969 1.582031-10.605469 4.394531l-96.398438 96.398438c-2.8125 2.8125-4.394531 6.628906-4.394531 10.605469v1.070312zm0 0" fill="#d9e4ef"/><path d="m289.703125 254.933594c0 17.746094-14.386719 32.132812-32.132813 32.132812-17.746093 0-32.132812-14.386718-32.132812-32.132812s14.386719-32.132813 32.132812-32.132813c17.746094 0 32.132813 14.386719 32.132813 32.132813zm0 0" fill="#ffb826"/><path d="m111.902344 431.667969h160.664062c26.339844 0 47.132813-21.394531 47.132813-47.136719v-9.976562l-53.09375-53.09375c-2.8125-2.8125-6.625-4.394532-10.605469-4.394532-3.976562 0-7.792969 1.578125-10.605469 4.394532l-37.59375 37.59375-53.660156-53.660157c-5.855469-5.859375-15.355469-5.859375-21.210937 0l-68.160157 68.160157v10.976562c-.003906 26.28125 21.324219 47.136719 47.132813 47.136719zm0 0" fill="#00d66a"/><path d="m256 317.066406c-3.976562 0-7.792969 1.582032-10.605469 4.394532l-37.59375 37.59375-15.566406-15.566407v88.179688h80.332031c26.339844 0 47.132813-21.390625 47.132813-47.132813v-9.980468l-53.09375-53.09375c-2.8125-2.8125-6.625-4.394532-10.605469-4.394532zm0 0" fill="#00b85e"/></svg>