<svg height="512pt" viewBox="-64 0 512 512" width="512pt" xmlns="http://www.w3.org/2000/svg"><path d="m336.335938 0h-224.933594c-3.980469 0-7.792969 1.582031-10.605469 4.394531l-96.402344 96.398438c-2.8125 2.8125-4.394531 6.628906-4.394531 10.605469v353.46875c0 25.988281 21.144531 47.132812 47.132812 47.132812h289.203126c25.914062 0 47.132812-20.953125 47.132812-47.132812v-417.734376c0-25.914062-20.953125-47.132812-47.132812-47.132812zm0 0" fill="#eff6fe"/><path d="m336.335938 0h-144.605469v512h144.605469c25.914062 0 47.132812-20.953125 47.132812-47.132812v-417.734376c0-25.914062-20.953125-47.132812-47.132812-47.132812zm0 0" fill="#d9e4ef"/><path d="m191.734375 176.734375c-70.285156 0-127.46875 57.179687-127.46875 127.464844 0 70.285156 57.183594 127.46875 127.46875 127.46875s127.464844-57.183594 127.464844-127.46875c0-70.285157-57.179688-127.464844-127.464844-127.464844zm0 0" fill="#3ab4fb"/><path d="m191.734375 176.730469v254.941406c70.289063 0 127.46875-57.183594 127.46875-127.472656 0-70.277344-57.179687-127.46875-127.46875-127.46875zm0 0" fill="#1d9cfd"/><path d="m95.335938 112.46875c9.445312 0 17.132812-7.6875 17.132812-17.132812v-95.335938h-1.070312c-3.976563 0-7.792969 1.582031-10.605469 4.394531l-96.398438 96.398438c-2.8125 2.8125-4.394531 6.628906-4.394531 10.605469v1.070312zm0 0" fill="#d9e4ef"/><path d="m248.652344 291.339844-80.335938-48.203125c-4.632812-2.777344-10.40625-2.851563-15.105468-.1875-4.703126 2.660156-7.609376 7.648437-7.609376 13.050781v96.402344c0 5.402344 2.90625 10.390625 7.609376 13.050781 6.347656 3.597656 12.390624 1.441406 15.105468-.1875l80.335938-48.203125c4.519531-2.710938 7.28125-7.59375 7.28125-12.859375 0-5.269531-2.761719-10.152344-7.28125-12.863281zm0 0" fill="#ffcc4b"/><path d="m248.652344 291.339844-56.917969-34.148438v94.019532l56.917969-34.152344c4.523437-2.707032 7.28125-7.589844 7.28125-12.859375s-2.757813-10.148438-7.28125-12.859375zm0 0" fill="#ffb826"/></svg>