<svg height="512pt" viewBox="-64 0 512 512" width="512pt" xmlns="http://www.w3.org/2000/svg"><path d="m336.335938 0h-224.933594c-3.980469 0-7.792969 1.582031-10.605469 4.394531l-96.402344 96.398438c-2.8125 2.8125-4.394531 6.628906-4.394531 10.605469v353.46875c0 25.988281 21.144531 47.132812 47.132812 47.132812h289.203126c25.914062 0 47.132812-20.953125 47.132812-47.132812v-417.734376c0-25.914062-20.953125-47.132812-47.132812-47.132812zm0 0" fill="#eff6fe"/><path d="m336.335938 0h-144.605469v512h144.605469c25.914062 0 47.132812-20.953125 47.132812-47.132812v-417.734376c0-25.914062-20.953125-47.132812-47.132812-47.132812zm0 0" fill="#d9e4ef"/><path d="m95.335938 112.46875c9.445312 0 17.132812-7.6875 17.132812-17.132812v-95.335938h-1.070312c-3.976563 0-7.792969 1.582031-10.605469 4.394531l-96.398438 96.398438c-2.8125 2.8125-4.394531 6.628906-4.394531 10.605469v1.070312zm0 0" fill="#d9e4ef"/><path d="m303.132812 144.601562h-96.398437c-8.285156 0-15 6.714844-15 15v142.800782c-11.648437-8.300782-25.875-13.203125-41.234375-13.203125-39.277344 0-71.230469 31.957031-71.230469 71.234375s31.953125 71.234375 71.230469 71.234375 71.234375-31.957031 71.234375-71.234375v-105.5h49.265625c6.136719 0 11.648438-3.734375 13.929688-9.429688l32.132812-80.332031c1.847656-4.621094 1.285156-9.859375-1.507812-13.980469-2.789063-4.125-7.441407-6.589844-12.421876-6.589844zm0 0" fill="#00984c"/><path d="m221.734375 360.433594c0 39.339844-31.890625 71.234375-71.234375 71.234375-39.339844 0-71.230469-31.894531-71.230469-71.234375s31.890625-71.234375 71.230469-71.234375c39.34375 0 71.234375 31.894531 71.234375 71.234375zm0 0" fill="#00d66a"/><path d="m191.730469 302.363281v116.140625c18.152343-12.910156 30.003906-34.101562 30.003906-58.070312s-11.851563-45.160156-30.003906-58.070313zm0 0" fill="#00b85e"/></svg>