<svg height="512pt" viewBox="-64 0 512 512" width="512pt" xmlns="http://www.w3.org/2000/svg"><path d="m336.335938 0h-224.933594c-3.980469 0-7.792969 1.582031-10.605469 4.394531l-96.402344 96.398438c-2.8125 2.8125-4.394531 6.628906-4.394531 10.605469v353.46875c0 25.988281 21.144531 47.132812 47.132812 47.132812h289.203126c25.914062 0 47.132812-20.953125 47.132812-47.132812v-417.734376c0-25.914062-20.953125-47.132812-47.132812-47.132812zm0 0" fill="#eff6fe"/><path d="m336.335938 0h-144.605469v512h144.605469c25.914062 0 47.132812-20.953125 47.132812-47.132812v-417.734376c0-25.914062-20.953125-47.132812-47.132812-47.132812zm0 0" fill="#d9e4ef"/><path d="m95.335938 112.46875c9.445312 0 17.132812-7.6875 17.132812-17.132812v-95.335938h-1.070312c-3.976563 0-7.792969 1.582031-10.605469 4.394531l-96.398438 96.398438c-2.8125 2.8125-4.394531 6.628906-4.394531 10.605469v1.070312zm0 0" fill="#d9e4ef"/><path d="m154.601562 297.234375h-59.265624c-8.285157 0-15 6.714844-15 15v88.367187c0 8.28125 6.714843 15 15 15h59.265624zm0 0" fill="#00d66a"/><path d="m288.132812 257.066406h-59.265624v158.535156h59.265624c8.285157 0 15-6.71875 15-15v-128.535156c0-8.285156-6.714843-15-15-15zm0 0" fill="#ffb826"/><path d="m213.867188 208.867188h-44.265626c-8.285156 0-15 6.714843-15 15v191.734374h74.265626v-191.734374c0-8.285157-6.714844-15-15-15zm0 0" fill="#3ab4fb"/><path d="m213.867188 208.867188h-22.136719v206.734374h37.136719v-191.734374c0-8.285157-6.714844-15-15-15zm0 0" fill="#1d9cfd"/></svg>