<svg height="512pt" viewBox="-64 0 512 512" width="512pt" xmlns="http://www.w3.org/2000/svg"><path d="m336.335938 0h-224.933594c-3.980469 0-7.792969 1.582031-10.605469 4.394531l-96.402344 96.398438c-2.8125 2.8125-4.394531 6.628906-4.394531 10.605469v353.46875c0 25.988281 21.144531 47.132812 47.132812 47.132812h289.203126c25.914062 0 47.132812-20.953125 47.132812-47.132812v-417.734376c0-25.914062-20.953125-47.132812-47.132812-47.132812zm0 0" fill="#eff6fe"/><path d="m336.335938 0h-144.605469v512h144.605469c25.914062 0 47.132812-20.953125 47.132812-47.132812v-417.734376c0-25.914062-20.953125-47.132812-47.132812-47.132812zm0 0" fill="#d9e4ef"/><path d="m95.335938 112.46875c9.445312 0 17.132812-7.6875 17.132812-17.132812v-95.335938h-1.070312c-3.976563 0-7.792969 1.582031-10.605469 4.394531l-96.398438 96.398438c-2.8125 2.8125-4.394531 6.628906-4.394531 10.605469v1.070312zm0 0" fill="#d9e4ef"/><path d="m138.074219 245.394531c-5.855469-5.859375-15.355469-5.859375-21.214844 0l-48.199219 48.199219c-5.855468 5.855469-5.855468 15.355469 0 21.214844l48.199219 48.199218c5.863281 5.859376 15.359375 5.855469 21.214844 0 5.859375-5.859374 5.859375-15.355468 0-21.214843l-37.59375-37.59375 37.59375-37.59375c5.859375-5.855469 5.859375-15.355469 0-21.210938zm0 0" fill="#00d66a"/><path d="m266.605469 245.394531c-5.855469-5.859375-15.351563-5.859375-21.210938 0-5.859375 5.855469-5.859375 15.355469 0 21.210938l37.59375 37.59375-37.59375 37.597656c-5.859375 5.855469-5.859375 15.351563 0 21.210937 5.859375 5.859376 15.355469 5.855469 21.210938 0l48.203125-48.199218c5.855468-5.859375 5.855468-15.355469 0-21.214844zm0 0" fill="#00b85e"/><path d="m211.4375 225.382812c-8.035156-2.011718-16.179688 2.875-18.1875 10.914063l-32.136719 128.53125c-2.007812 8.035156 2.878907 16.183594 10.914063 18.191406 8.480468 2.121094 16.292968-3.324219 18.191406-10.914062l32.132812-128.535157c2.011719-8.035156-2.875-16.179687-10.914062-18.1875zm0 0" fill="#00d66a"/><path d="m211.4375 225.382812c-8.035156-2.011718-16.179688 2.875-18.1875 10.914063l-1.519531 6.070313v123.691406l30.621093-122.488282c2.011719-8.035156-2.875-16.179687-10.914062-18.1875zm0 0" fill="#00b85e"/></svg>