<svg height="512pt" viewBox="-64 0 512 512" width="512pt" xmlns="http://www.w3.org/2000/svg"><path d="m336.335938 0h-224.933594c-3.980469 0-7.792969 1.582031-10.605469 4.394531l-96.402344 96.398438c-2.8125 2.8125-4.394531 6.628906-4.394531 10.605469v353.46875c0 25.988281 21.144531 47.132812 47.132812 47.132812h289.203126c25.914062 0 47.132812-20.953125 47.132812-47.132812v-417.734376c0-25.914062-20.953125-47.132812-47.132812-47.132812zm0 0" fill="#eff6fe"/><path d="m336.335938 0h-144.605469v512h144.605469c25.914062 0 47.132812-20.953125 47.132812-47.132812v-417.734376c0-25.914062-20.953125-47.132812-47.132812-47.132812zm0 0" fill="#d9e4ef"/><path d="m95.335938 112.46875c9.445312 0 17.132812-7.6875 17.132812-17.132812v-95.335938h-1.070312c-3.976563 0-7.792969 1.582031-10.605469 4.394531l-96.398438 96.398438c-2.8125 2.8125-4.394531 6.628906-4.394531 10.605469v1.070312zm0 0" fill="#d9e4ef"/><path d="m334.324219 287.597656c-.851563-7.300781-7.128907-12.761718-14.480469-12.761718h-.007812c-6.230469 0-11.769532-3.957032-13.792969-9.847657-1.628907-4.746093-3.550781-9.382812-5.753907-13.886719-2.738281-5.597656-1.617187-12.316406 2.789063-16.71875 5.203125-5.199218 5.78125-13.503906 1.21875-19.269531-6.890625-8.707031-14.769531-16.585937-23.476563-23.476562-5.765624-4.5625-14.066406-3.984375-19.265624 1.21875-4.40625 4.40625-11.125 5.527343-16.722657 2.789062-4.503906-2.203125-9.144531-4.125-13.886719-5.753906-5.890624-2.023437-9.847656-7.5625-9.847656-13.789063v-.007812c0-7.355469-5.460937-13.632812-12.761718-14.484375-11.03125-1.285156-22.171876-1.285156-33.203126 0-7.304687.851563-12.765624 7.128906-12.765624 14.484375v.007812c0 6.226563-3.953126 11.765626-9.84375 13.789063-4.746094 1.628906-9.382813 3.550781-13.886719 5.753906-5.601563 2.738281-12.316407 1.617188-16.722657-2.789062-5.199218-5.203125-13.5-5.78125-19.265624-1.21875-8.710938 6.890625-16.585938 14.769531-23.476563 23.476562-4.566406 5.765625-3.984375 14.070313 1.21875 19.269531 4.40625 4.402344 5.527344 11.121094 2.789063 16.71875-2.203126 4.503907-4.125 9.144532-5.753907 13.886719-2.023437 5.890625-7.5625 9.847657-13.792969 9.847657h-.007812c-7.351562 0-13.632812 5.460937-14.480469 12.761718-1.285156 11.03125-1.285156 22.171875 0 33.203125.847657 7.304688 7.128907 12.765625 14.480469 12.765625h.007812c6.230469 0 11.769532 3.953125 13.792969 9.84375 1.628907 4.746094 3.550781 9.382813 5.753907 13.890625 2.738281 5.597657 1.617187 12.3125-2.789063 16.71875-5.203125 5.199219-5.78125 13.5-1.21875 19.265625 6.890625 8.710938 14.765625 16.585938 23.476563 23.476563 5.765624 4.566406 14.066406 3.984375 19.265624-1.214844 4.40625-4.410156 11.121094-5.53125 16.722657-2.792969 4.503906 2.207032 9.140625 4.128906 13.886719 5.753906 5.890624 2.023438 9.84375 7.5625 9.84375 13.792969v.007813c0 7.351562 5.460937 13.632812 12.765624 14.480468 11.03125 1.285157 22.171876 1.285157 33.203126 0 7.300781-.847656 12.761718-7.128906 12.761718-14.480468v-.007813c0-6.230469 3.957032-11.769531 9.847656-13.792969 4.746094-1.625 9.382813-3.546874 13.886719-5.753906 5.597657-2.738281 12.316407-1.617187 16.722657 2.792969 5.199218 5.199219 13.5 5.777344 19.265624 1.214844 8.707032-6.890625 16.585938-14.765625 23.476563-23.476563 4.5625-5.765625 3.984375-14.066406-1.21875-19.265625-4.40625-4.40625-5.527344-11.121093-2.789063-16.71875 2.203126-4.507812 4.125-9.144531 5.753907-13.890625 2.023437-5.890625 7.5625-9.84375 13.792969-9.84375h.007812c7.351562 0 13.628906-5.460937 14.480469-12.765625 1.285156-11.03125 1.285156-22.171875 0-33.203125zm-142.589844 79.800782c-34.847656 0-63.199219-28.351563-63.199219-63.199219 0-34.847657 28.351563-63.199219 63.199219-63.199219s63.199219 28.351562 63.199219 63.199219c0 34.847656-28.351563 63.199219-63.199219 63.199219zm0 0" fill="#3ab4fb"/><path d="m319.84375 274.835938h-.007812c-6.230469 0-11.769532-3.957032-13.792969-9.847657-1.628907-4.746093-3.550781-9.382812-5.753907-13.886719-2.738281-5.597656-1.617187-12.316406 2.789063-16.71875 5.203125-5.199218 5.78125-13.503906 1.21875-19.269531-6.890625-8.707031-14.765625-16.585937-23.476563-23.476562-5.765624-4.5625-14.066406-3.984375-19.265624 1.21875-4.40625 4.40625-11.121094 5.527343-16.71875 2.789062-4.507813-2.203125-9.144532-4.125-13.890626-5.753906-5.890624-2.023437-9.84375-7.5625-9.84375-13.789063v-.007812c0-7.355469-5.460937-13.632812-12.765624-14.484375-5.515626-.640625-11.058594-.960937-16.605469-.960937v80.351562h.003906c34.851563 0 63.199219 28.351562 63.199219 63.199219 0 34.847656-28.351563 63.199219-63.199219 63.199219 0 0 0 0-.003906 0v80.355468c5.546875 0 11.089843-.320312 16.605469-.964844 7.304687-.847656 12.765624-7.128906 12.765624-14.480468v-.007813c0-6.230469 3.953126-11.769531 9.84375-13.792969 4.746094-1.625 9.382813-3.546874 13.890626-5.753906 5.597656-2.738281 12.3125-1.617187 16.71875 2.792969 5.199218 5.199219 13.5 5.777344 19.265624 1.214844 8.710938-6.890625 16.585938-14.765625 23.476563-23.476563 4.566406-5.765625 3.984375-14.066406-1.21875-19.265625-4.40625-4.40625-5.527344-11.121093-2.789063-16.71875 2.203126-4.507812 4.125-9.144531 5.753907-13.890625 2.023437-5.890625 7.5625-9.84375 13.792969-9.84375h.007812c7.351562 0 13.632812-5.460937 14.480469-12.765625 1.285156-11.03125 1.285156-22.171875 0-33.203125-.851563-7.300781-7.128907-12.761718-14.480469-12.761718zm0 0" fill="#1d9cfd"/></svg>