<svg height="512pt" viewBox="-64 0 512 512" width="512pt" xmlns="http://www.w3.org/2000/svg"><path d="m336.335938 0h-224.933594c-3.980469 0-7.792969 1.582031-10.605469 4.394531l-96.402344 96.398438c-2.8125 2.8125-4.394531 6.628906-4.394531 10.605469v353.46875c0 25.988281 21.144531 47.132812 47.132812 47.132812h289.203126c25.914062 0 47.132812-20.953125 47.132812-47.132812v-417.734376c0-25.914062-20.953125-47.132812-47.132812-47.132812zm0 0" fill="#eff6fe"/><path d="m336.335938 0h-144.605469v512h144.605469c25.914062 0 47.132812-20.953125 47.132812-47.132812v-417.734376c0-25.914062-20.953125-47.132812-47.132812-47.132812zm0 0" fill="#d9e4ef"/><path d="m95.335938 112.46875c9.445312 0 17.132812-7.6875 17.132812-17.132812v-95.335938h-1.070312c-3.976563 0-7.792969 1.582031-10.605469 4.394531l-96.398438 96.398438c-2.8125 2.8125-4.394531 6.628906-4.394531 10.605469v1.070312zm0 0" fill="#d9e4ef"/><path d="m135.484375 208.867188c-30.457031 0-55.148437 24.640624-55.148437 55.148437v120.515625c0 8.285156 6.714843 15 15 15 8.28125 0 15-6.714844 15-15v-49.265625h50.332031v49.265625c0 8.285156 6.714843 15 15 15 8.285156 0 15-6.714844 15-15v-120.515625c0-30.164063-24.359375-55.148437-55.183594-55.148437zm25.183594 96.398437h-50.332031v-41.25c0-13.757813 11.101562-25.148437 25.183593-25.148437 13.917969 0 25.148438 11.269531 25.148438 25.148437zm0 0" fill="#3ab4fb"/><path d="m256 257.066406h-24.992188c-8.28125 0-15 6.714844-15 15s6.71875 15 15 15h24.992188c9.449219 0 17.136719 7.6875 17.136719 17.132813v1.066406h-17.554688c-25.761719 0-46.714843 20.832031-46.714843 46.730469 0 26.253906 21.242187 47.535156 47.535156 47.535156h31.730468c8.285157 0 15-6.714844 15-15v-80.332031c0-25.988281-21.144531-47.132813-47.132812-47.132813zm17.132812 112.464844h-16.730468c-9.773438 0-17.535156-7.929688-17.535156-17.550781 0-9.257813 7.488281-16.714844 16.714843-16.714844h17.550781zm0 0" fill="#1d9cfd"/></svg>