<svg height="512pt" viewBox="-64 0 512 512" width="512pt" xmlns="http://www.w3.org/2000/svg"><path d="m336.335938 0h-224.933594c-3.980469 0-7.792969 1.582031-10.605469 4.394531l-96.402344 96.398438c-2.8125 2.8125-4.394531 6.628906-4.394531 10.605469v353.46875c0 25.988281 21.144531 47.132812 47.132812 47.132812h289.203126c25.914062 0 47.132812-20.953125 47.132812-47.132812v-417.734376c0-25.914062-20.953125-47.132812-47.132812-47.132812zm0 0" fill="#eff6fe"/><path d="m336.335938 0h-144.605469v512h144.605469c25.914062 0 47.132812-20.953125 47.132812-47.132812v-417.734376c0-25.914062-20.953125-47.132812-47.132812-47.132812zm0 0" fill="#d9e4ef"/><path d="m95.335938 112.46875c9.445312 0 17.132812-7.6875 17.132812-17.132812v-95.335938h-1.070312c-3.976563 0-7.792969 1.582031-10.605469 4.394531l-96.398438 96.398438c-2.8125 2.8125-4.394531 6.628906-4.394531 10.605469v1.070312zm0 0" fill="#d9e4ef"/><path d="m291.507812 337.398438h-41.230468l-41.226563-71.378907 20.578125-35.695312c16.804688-29.105469-4.257812-65.671875-37.894531-65.671875-33.601563 0-54.71875 36.53125-37.898437 65.664062l20.578124 35.703125-41.226562 71.378907h-41.226562c-33.21875 0-54.425782 35.808593-38.285157 64.984374.125.242188.253907.480469.390625.71875 16.847656 29.179688 59.074219 29.089844 75.871094-.007812l20.578125-35.695312h82.4375l20.578125 35.703124c16.777344 29.058594 59.003906 29.210938 75.871094 0 .132812-.234374.261718-.46875.382812-.710937 16.152344-29.175781-5.050781-64.992187-38.277344-64.992187zm-187.554687 50.703124c-2.453125 4.25-7.050781 6.890626-11.992187 6.890626-4.742188 0-9.179688-2.480469-11.679688-6.503907-.078125-.140625-.152344-.277343-.234375-.417969-2.453125-4.25-2.453125-9.53125 0-13.78125s7.019531-6.890624 11.914063-6.890624h23.925781zm75.867187-186.554687c2.453126-4.25 7.019532-6.894531 11.914063-6.894531s9.457031 2.640625 11.914063 6.894531c2.453124 4.25 2.453124 9.527344-.007813 13.789063l-11.90625 20.65625-11.914063-20.667969c-2.453124-4.25-2.453124-9.527344 0-13.777344zm-11.984374 135.851563 23.898437-41.378907 23.898437 41.378907zm135.585937 50.671874c-.078125.140626-.15625.277344-.230469.417969-2.503906 4.023438-6.9375 6.503907-11.683594 6.503907-4.941406 0-9.539062-2.640626-11.988281-6.882813l-11.9375-20.710937h23.925781c4.894532 0 9.460938 2.640624 11.914063 6.890624s2.453125 9.53125 0 13.78125zm0 0" fill="#ff7579"/><path d="m291.507812 337.398438h-41.230468l-41.226563-71.378907 20.578125-35.695312c16.804688-29.105469-4.257812-65.671875-37.894531-65.671875-.003906 0-.003906 0-.003906 0v30h.003906c4.894531 0 9.457031 2.640625 11.910156 6.894531 2.457031 4.25 2.457031 9.527344-.003906 13.789063l-11.90625 20.65625-.003906-.007813v60.039063l.003906-.003907 23.898437 41.378907h-23.902343v30h41.222656l20.578125 35.703124c16.777344 29.058594 59.003906 29.210938 75.871094 0 .132812-.234374.261718-.472656.382812-.710937 16.152344-29.175781-5.050781-64.992187-38.277344-64.992187zm11.914063 50.671874c-.078125.140626-.15625.277344-.230469.417969-2.503906 4.023438-6.9375 6.503907-11.683594 6.503907-4.941406 0-9.539062-2.640626-11.988281-6.882813l-11.9375-20.710937h23.925781c4.894532 0 9.460938 2.640624 11.914063 6.890624s2.453125 9.53125 0 13.78125zm0 0" fill="#fe4a60"/></svg>