<svg height="512pt" viewBox="-64 0 512 512" width="512pt" xmlns="http://www.w3.org/2000/svg"><path d="m336.335938 0h-224.933594c-3.980469 0-7.792969 1.582031-10.605469 4.394531l-96.402344 96.398438c-2.8125 2.8125-4.394531 6.628906-4.394531 10.605469v353.46875c0 25.988281 21.144531 47.132812 47.132812 47.132812h289.203126c25.914062 0 47.132812-20.953125 47.132812-47.132812v-417.734376c0-25.914062-20.953125-47.132812-47.132812-47.132812zm0 0" fill="#eff6fe"/><path d="m336.335938 0h-144.605469v512h144.605469c25.914062 0 47.132812-20.953125 47.132812-47.132812v-417.734376c0-25.914062-20.953125-47.132812-47.132812-47.132812zm0 0" fill="#d9e4ef"/><path d="m95.335938 112.46875c9.445312 0 17.132812-7.6875 17.132812-17.132812v-95.335938h-1.070312c-3.976563 0-7.792969 1.582031-10.605469 4.394531l-96.398438 96.398438c-2.8125 2.8125-4.394531 6.628906-4.394531 10.605469v1.070312zm0 0" fill="#d9e4ef"/><path d="m183.441406 194.382812c-5.082031-2.539062-11.164062-1.992187-15.707031 1.417969l-60.265625 45.199219h-27.132812c-17.132813 0-31.070313 13.9375-31.070313 31.066406v40.167969c0 17.128906 13.9375 31.066406 31.070313 31.066406h27.828124l60.621094 37.886719c2.425782 1.515625 5.1875 2.277344 7.949219 2.277344 2.5 0 5.003906-.625 7.273437-1.878906 4.769532-2.644532 7.726563-7.667969 7.726563-13.121094v-160.664063c0-5.683593-3.210937-10.875-8.292969-13.417969zm0 0" fill="#ff7579"/><g fill="#1d9cfd"><path d="m246.722656 180.871094c-6 5.714844-6.230468 15.207031-.519531 21.207031 45.957031 48.257813 45.957031 123.855469 0 172.109375-5.710937 6-5.480469 15.492188.519531 21.207031 2.902344 2.765625 6.625 4.136719 10.34375 4.136719 3.960938 0 7.914063-1.558594 10.863282-4.652344 57.007812-59.855468 57.007812-153.632812 0-213.488281-5.714844-6-15.210938-6.230469-21.207032-.519531zm0 0"/><path d="m236.941406 233.238281c-.15625-.210937-.320312-.417969-.488281-.617187 0-.003906-.003906-.003906-.003906-.007813-.003907 0-.003907-.003906-.003907-.003906-2.753906-3.289063-6.886718-5.382813-11.511718-5.382813-8.285156 0-15 6.71875-15 15 0 3.3125 1.097656 6.496094 3.058594 9.078126 16.226562 21.695312 16.222656 51.957031 0 73.65625-1.960938 2.578124-3.058594 5.761718-3.058594 9.074218 0 8.285156 6.714844 15 15 15 4.644531 0 8.800781-2.109375 11.550781-5.429687.003906-.003907.007813-.003907.007813-.007813l.003906-.003906c.152344-.183594.300781-.375.445312-.566406 11.972656-15.960938 18.296875-34.941406 18.296875-54.894532 0-19.949218-6.324219-38.933593-18.296875-54.894531zm0 0"/></g></svg>